<svg width="30" height="30" viewBox="0 0 30 30" fill="none" xmlns="http://www.w3.org/2000/svg">
<path d="M11.8417 5.0639C11.9092 4.35411 12.2388 3.69497 12.7663 3.21526C13.2938 2.73555 13.9812 2.46973 14.6941 2.46973C15.4071 2.46973 16.0945 2.73555 16.622 3.21526C17.1495 3.69497 17.4791 4.35411 17.5466 5.0639C17.5871 5.52241 17.7376 5.96441 17.9851 6.35248C18.2327 6.74054 18.5701 7.06326 18.9688 7.2933C19.3675 7.52334 19.8157 7.65394 20.2756 7.67405C20.7355 7.69415 21.1934 7.60317 21.6107 7.4088C22.2586 7.11465 22.9927 7.07208 23.6703 7.28939C24.3478 7.5067 24.9203 7.96833 25.2762 8.58443C25.6322 9.20054 25.7461 9.92705 25.596 10.6226C25.4458 11.3181 25.0422 11.9328 24.4637 12.3472C24.0871 12.6115 23.7796 12.9626 23.5673 13.3709C23.355 13.7791 23.2442 14.2325 23.2442 14.6927C23.2442 15.1528 23.355 15.6062 23.5673 16.0145C23.7796 16.4227 24.0871 16.7739 24.4637 17.0382C25.0422 17.4525 25.4458 18.0673 25.596 18.7628C25.7461 19.4583 25.6322 20.1848 25.2762 20.8009C24.9203 21.417 24.3478 21.8786 23.6703 22.096C22.9927 22.3133 22.2586 22.2707 21.6107 21.9766C21.1934 21.7822 20.7355 21.6912 20.2756 21.7113C19.8157 21.7314 19.3675 21.862 18.9688 22.092C18.5701 22.3221 18.2327 22.6448 17.9851 23.0329C17.7376 23.4209 17.5871 23.8629 17.5466 24.3214C17.4791 25.0312 17.1495 25.6904 16.622 26.1701C16.0945 26.6498 15.4071 26.9156 14.6941 26.9156C13.9812 26.9156 13.2938 26.6498 12.7663 26.1701C12.2388 25.6904 11.9092 25.0312 11.8417 24.3214C11.8012 23.8628 11.6508 23.4206 11.4032 23.0324C11.1555 22.6442 10.818 22.3214 10.4191 22.0913C10.0203 21.8612 9.57182 21.7307 9.11179 21.7107C8.65176 21.6907 8.1937 21.7819 7.77639 21.9766C7.1285 22.2707 6.39434 22.3133 5.7168 22.096C5.03926 21.8786 4.46681 21.417 4.11086 20.8009C3.75491 20.1848 3.64094 19.4583 3.79112 18.7628C3.94129 18.0673 4.34488 17.4525 4.92333 17.0382C5.30001 16.7739 5.60749 16.4227 5.81976 16.0145C6.03204 15.6062 6.14286 15.1528 6.14286 14.6927C6.14286 14.2325 6.03204 13.7791 5.81976 13.3709C5.60749 12.9626 5.30001 12.6115 4.92333 12.3472C4.34569 11.9326 3.94282 11.3181 3.793 10.6231C3.64319 9.92802 3.75714 9.20211 4.1127 8.5864C4.46826 7.9707 5.04004 7.50918 5.71691 7.29154C6.39378 7.0739 7.12739 7.1157 7.77517 7.4088C8.19242 7.60317 8.65036 7.69415 9.11023 7.67405C9.57009 7.65394 10.0183 7.52334 10.417 7.2933C10.8157 7.06326 11.1532 6.74054 11.4007 6.35248C11.6483 5.96441 11.7987 5.52241 11.8392 5.0639" stroke="#0038A8" stroke-width="2.44898" stroke-linecap="round" stroke-linejoin="round"/>
<path d="M14.6942 18.3674C16.723 18.3674 18.3677 16.7228 18.3677 14.694C18.3677 12.6652 16.723 11.0205 14.6942 11.0205C12.6654 11.0205 11.0208 12.6652 11.0208 14.694C11.0208 16.7228 12.6654 18.3674 14.6942 18.3674Z" stroke="#0038A8" stroke-width="2.44898" stroke-linecap="round" stroke-linejoin="round"/>
</svg>
